<?xml version="1.0" encoding="UTF-8"?>
<svg version="1.1" xmlns="http://www.w3.org/2000/svg" width="1024" height="1024">
<path d="M0 0 C337.92 0 675.84 0 1024 0 C1024 337.92 1024 675.84 1024 1024 C686.08 1024 348.16 1024 0 1024 C0 686.08 0 348.16 0 0 Z " fill="#FEFEFE" transform="translate(0,0)"/>
<path d="M0 0 C3.99352756 28.78702817 7.6140457 57.61778453 11.18847656 86.45947266 C12.33126033 95.67680501 13.4849785 104.89276597 14.63845825 114.10876465 C14.98939572 116.91519796 15.33945971 119.7217387 15.68920898 122.52832031 C16.90614444 132.28838848 18.13121867 142.04737432 19.36891365 151.80483055 C20.17062732 158.12577994 20.96936546 164.44710154 21.76641655 170.76864052 C22.28189275 174.85557035 22.79905277 178.94227464 23.31958008 183.02856445 C23.83257173 187.05633019 24.34132447 191.08461106 24.84717751 195.11327934 C25.03822587 196.62883054 25.2307789 198.14419292 25.42493248 199.65934944 C25.69447634 201.76468123 25.95856859 203.87063223 26.22143555 205.97680664 C26.44768867 207.76351524 26.44768867 207.76351524 26.67851257 209.58631897 C27.00738911 213.07846055 27.05572431 216.49457548 27 220 C20.12350178 214.29396956 13.65983072 208.19813367 7.875 201.375 C4.30034329 197.19617596 0.40441403 193.36662176 -3.5 189.5 C-7.85993271 185.18206543 -12.09910336 180.86642041 -16.05078125 176.16796875 C-19.56824422 172.25576044 -23.35914443 168.60324137 -27.11547852 164.92163086 C-29.52198059 162.54954994 -31.77984021 160.2967371 -33.796875 157.578125 C-34.19390625 157.05734375 -34.5909375 156.5365625 -35 156 C-35.66 156 -36.32 156 -37 156 C-37.24419678 156.66491455 -37.48839355 157.3298291 -37.73999023 158.01489258 C-57.85296719 212.21470139 -87.00238484 263.06630418 -122 309 C-122.48807129 309.64114746 -122.97614258 310.28229492 -123.47900391 310.94287109 C-132.37441803 322.56919883 -141.88297935 333.67498416 -151.73510742 344.49975586 C-153.14857062 346.06009613 -154.5543376 347.62748515 -155.94824219 349.20532227 C-161.71747926 355.71819601 -167.75908406 361.91339788 -173.9206543 368.05102539 C-175.56741404 369.69239796 -177.20872095 371.33908819 -178.84960938 372.98632812 C-184.3954328 378.53565056 -190.03072437 383.90448917 -196 389 C-197.77570221 390.61967817 -199.54708307 392.24411718 -201.3125 393.875 C-205.85524685 398.02245258 -210.54119962 401.93232695 -215.328125 405.79296875 C-217.8985905 407.91623338 -220.35919363 410.11811849 -222.8125 412.375 C-231.9371219 420.65580891 -241.87108528 427.96579257 -251.75 435.3125 C-252.51755615 435.88701904 -253.2851123 436.46153809 -254.07592773 437.0534668 C-258.06225301 439.99472957 -262.11623091 442.8363414 -266.265625 445.54296875 C-267.05227539 446.06270264 -267.83892578 446.58243652 -268.64941406 447.11791992 C-271 448 -271 448 -273.62548828 447.29638672 C-276.72213316 445.6057447 -279.1120926 443.37288947 -281.625 440.9375 C-282.69588115 439.93012345 -283.76883494 438.92494608 -284.84375 437.921875 C-285.37742187 437.42365234 -285.91109375 436.92542969 -286.4609375 436.41210938 C-289.94955411 433.21125936 -293.6359629 430.2562503 -297.34472656 427.31640625 C-298.54341419 426.36311367 -299.73750005 425.40402528 -300.92871094 424.44140625 C-333.12084023 398.44757504 -369.83988791 379.2351439 -412.34765625 383.5078125 C-423.98033586 384.8305583 -434.93735515 387.20197016 -446 391 C-446.97646484 391.32242676 -446.97646484 391.32242676 -447.97265625 391.65136719 C-472.64785992 399.85599505 -494.6808153 414.37450874 -513.7265625 431.91015625 C-515.84630212 433.85871415 -518.00483469 435.74757333 -520.1875 437.625 C-526.91919531 443.13267876 -526.91919531 443.13267876 -532 450 C-532.66 450 -533.32 450 -534 450 C-534.25136719 450.57363281 -534.50273438 451.14726563 -534.76171875 451.73828125 C-536.16468821 454.30080275 -537.79550032 456.07320535 -539.8125 458.1875 C-568.46335843 489.58006737 -589.57512629 528.24170925 -608 566.25 C-608.30951599 566.88750183 -608.61903198 567.52500366 -608.93792725 568.18182373 C-613.21660252 577.0191571 -617.20435034 585.94535956 -621 595 C-627.30518105 594.40230607 -632.82850761 592.46458569 -638.75390625 590.2890625 C-639.77298569 589.9202597 -640.79206512 589.55145691 -641.84202576 589.17147827 C-643.98887258 588.39293141 -646.13452917 587.61109553 -648.27905273 586.82617188 C-651.55232805 585.62872117 -654.82949329 584.44245791 -658.10742188 583.2578125 C-660.19815578 582.49805352 -662.28865857 581.73765816 -664.37890625 580.9765625 C-665.35404678 580.62332916 -666.32918732 580.27009583 -667.33387756 579.90615845 C-672.047849 578.17603435 -676.57182551 576.37212064 -681 574 C-680.33331125 569.41318143 -678.58793278 565.43507026 -676.6875 561.25 C-676.33776123 560.47342041 -675.98802246 559.69684082 -675.62768555 558.89672852 C-653.75155838 510.69022941 -628.30571391 463.81169842 -593 424 C-591.81205822 422.62538166 -590.6244873 421.25044262 -589.4375 419.875 C-578.65096381 407.62941544 -567.58404092 395.43452812 -555 385 C-554.46455566 384.55076172 -553.92911133 384.10152344 -553.37744141 383.63867188 C-518.50518389 354.44329349 -466.90386456 319.89085494 -419 323 C-418.89558594 322.32582031 -418.79117187 321.65164063 -418.68359375 320.95703125 C-415.7507218 308.27026514 -408.25011166 296.62487271 -401 286 C-400.27554687 284.93523437 -399.55109375 283.87046875 -398.8046875 282.7734375 C-374.477205 249.29136229 -337.41201264 226.31755465 -296.61352539 219.61962891 C-289.16068999 218.52711714 -281.70544853 218.50010373 -274.1875 218.5625 C-273.01152756 218.56706207 -273.01152756 218.56706207 -271.8117981 218.57171631 C-259.46631452 218.64231662 -247.9126101 219.56859239 -236 223 C-235.24654297 223.19835449 -234.49308594 223.39670898 -233.71679688 223.60107422 C-208.58239292 230.23288483 -185.63577178 242.86789773 -167 261 C-163.2668471 259.52419731 -161.75079933 257.61350714 -159.56640625 254.29296875 C-158.92421143 253.32480225 -158.2820166 252.35663574 -157.62036133 251.35913086 C-156.94126709 250.31249268 -156.26217285 249.26585449 -155.5625 248.1875 C-154.49841919 246.56630249 -154.49841919 246.56630249 -153.4128418 244.91235352 C-132.86553576 213.46389912 -113.92920816 180.97078427 -100 146 C-99.48180592 144.70483619 -98.96339499 143.40975913 -98.44482422 142.11474609 C-96.96172921 138.41042396 -95.48050001 134.70535999 -94 131 C-95.26255615 131.08564209 -96.5251123 131.17128418 -97.82592773 131.25952148 C-157.7678864 135.31160808 -157.7678864 135.31160808 -181 135 C-176.89776159 130.61288392 -172.36523786 127.19127212 -167.5 123.6875 C-160.43319536 118.54251481 -153.4379242 113.31748592 -146.5 108 C-139.11399415 102.3459366 -131.66804414 96.78528985 -124.1640625 91.2890625 C-118.22328567 86.92722968 -112.3524674 82.47945452 -106.5 78 C-99.11358208 72.34646605 -91.66805534 66.78529806 -84.1640625 61.2890625 C-78.2232821 56.92722706 -72.35259083 52.47929729 -66.5 48 C-57.52799879 41.13634495 -48.46837776 34.40227277 -39.35595703 27.7265625 C-35.33740374 24.78156676 -31.32473103 21.82860024 -27.3125 18.875 C-26.53318115 18.30233398 -25.7538623 17.72966797 -24.95092773 17.13964844 C-21.05330995 14.27076689 -17.17312136 11.38197172 -13.3203125 8.453125 C-12.58127686 7.89254395 -11.84224121 7.33196289 -11.08081055 6.75439453 C-9.68320747 5.69190416 -8.28867718 4.62535596 -6.89770508 3.55419922 C-2.22083799 0 -2.22083799 0 0 0 Z " fill="#32B23C" transform="translate(842,188)"/>
<path d="M0 0 C0.68708038 -0.00201416 1.37416077 -0.00402832 2.08206177 -0.00610352 C14.26544227 0.01797746 24.99641016 1.68282497 36.25 6.5 C36.97203613 6.80502441 37.69407227 7.11004883 38.43798828 7.42431641 C50.864642 12.82708717 61.13086459 20.53076634 71.25 29.5 C70.7152932 33.43579268 69.03349952 34.91239274 66.0625 37.4375 C65.16015625 38.21996094 64.2578125 39.00242187 63.328125 39.80859375 C62.83376953 40.23640137 62.33941406 40.66420898 61.83007812 41.10498047 C59.53990927 43.12692498 57.32297831 45.22355896 55.09912109 47.31787109 C49.49053896 52.59843011 43.77620083 57.63666532 37.76171875 62.45703125 C35.36073571 64.40993036 33.04912394 66.42875383 30.75 68.5 C25.72764647 73.01296892 20.49479306 77.24978571 15.25 81.5 C13.18568223 83.18528914 11.12418273 84.87398449 9.0625 86.5625 C7.45833333 87.875 5.85416667 89.1875 4.25 90.5 C0.52092348 88.86741387 -2.46952823 86.45710363 -5.625 83.9375 C-28.14326874 66.34370355 -53.12735396 55.51527519 -80.75 48.5 C-71.1809561 27.88263971 -49.19217595 12.06172511 -28.48168945 4.40161133 C-26.58154533 3.72915536 -24.67232084 3.10590045 -22.75 2.5 C-21.57566406 2.12617188 -20.40132812 1.75234375 -19.19140625 1.3671875 C-12.91453989 -0.12538453 -6.4184066 0.01305627 0 0 Z " fill="#FDFEFD" transform="translate(566.75,465.5)"/>
<path d="M0 0 C3.13671875 0.14453125 3.13671875 0.14453125 6.6875 0.8125 C8.45673828 1.13154297 8.45673828 1.13154297 10.26171875 1.45703125 C11.61716797 1.72580078 11.61716797 1.72580078 13 2 C13 2.33 13 2.66 13 3 C7.72 3 2.44 3 -3 3 C-2.01 2.01 -1.02 1.02 0 0 Z " fill="#40B148" transform="translate(664,320)"/>
<path d="M0 0 C0.99 0.33 1.98 0.66 3 1 C-0.465 3.97 -0.465 3.97 -4 7 C-4 4 -4 4 -2 1.8125 C-1.34 1.214375 -0.68 0.61625 0 0 Z " fill="#3BAF43" transform="translate(634,500)"/>
</svg>
